# xmcd
#
# Track frame offsets:
#	150
#	26032
#	44425
#	69404
#	89651
#	113130
#	133610
#	149112
#	173037
#	189584
#	212244
#	227698
#
# Disc length: 3181 seconds
#
# Revision: 1
# Processed by: cddbd v1.5.2PL0 Copyright (c) Steve Scherf et al.
# Submitted via: FairStars CD Ripper 1.52
#
DISCID=b50c6b0c
DTITLE=Chuck Cannon - Symphony of Scars
DYEAR=2012
DGENRE=Country
TTITLE0=If I Was Jesus
TTITLE1=This Old Guitar
TTITLE2=Give God The Blues
TTITLE3=Boyfriend In Your Bedroom
TTITLE4=Revenge
TTITLE5=Greed
TTITLE6=The House Is Burning Down
TTITLE7=Snows of Winter
TTITLE8=You Let The Fox Watch the Henhouse
TTITLE9=Corporation
TTITLE10=Happy
TTITLE11=Kinda Blues
EXTD=
EXTT0=
EXTT1=
EXTT2=
EXTT3=
EXTT4=
EXTT5=
EXTT6=
EXTT7=
EXTT8=
EXTT9=
EXTT10=
EXTT11=
PLAYORDER=
